<svg width="32" height="32" viewBox="0 0 32 32" fill="none" xmlns="http://www.w3.org/2000/svg">
<g id="ic:baseline-apple">
<path id="Vector" d="M24.0591 30.0464C22.426 31.6295 20.6429 31.3795 18.9265 30.6296C17.11 29.8631 15.4436 29.8297 13.5271 30.6296C11.1274 31.6628 9.86093 31.3629 8.42778 30.0464C0.295471 21.6641 1.49532 8.89903 10.7275 8.43243C12.9772 8.54908 14.5437 9.6656 15.8602 9.76559C17.8266 9.36564 19.7097 8.21579 21.8094 8.36577C24.3258 8.56574 26.2255 9.56562 27.4754 11.3654C22.276 14.4817 23.5092 21.3308 28.2753 23.2472C27.3254 25.7469 26.0922 28.2299 24.0425 30.063L24.0591 30.0464ZM15.6935 8.33244C15.4436 4.61624 18.4598 1.54996 21.9261 1.25C22.4093 5.54946 18.0266 8.74905 15.6935 8.33244Z" fill="black"/>
</g>
</svg>
