<svg width="32" height="32" viewBox="0 0 32 32" fill="none" xmlns="http://www.w3.org/2000/svg">
<g id="logos:google-icon" clip-path="url(#clip0_245_3241)">
<path id="Vector" d="M31.9848 16.2989C31.9848 14.9879 31.876 14.0312 31.6403 13.0391H16.3188V18.9564H25.3122C25.131 20.4269 24.1518 22.6415 21.976 24.1296L21.9455 24.3277L26.7898 27.9947L27.1255 28.0274C30.2078 25.2458 31.9848 21.1533 31.9848 16.2989Z" fill="#4285F4"/>
<path id="Vector_2" d="M16.3188 31.8891C20.7248 31.8891 24.4237 30.4717 27.1255 28.0269L21.976 24.1291C20.598 25.0681 18.7485 25.7236 16.3188 25.7236C12.0035 25.7236 8.34085 22.9422 7.03522 19.0977L6.84385 19.1135L1.8066 22.9226L1.74072 23.1016C4.42422 28.3102 9.93635 31.8891 16.3188 31.8891Z" fill="#34A853"/>
<path id="Vector_3" d="M7.03512 19.0977C6.69062 18.1056 6.49125 17.0425 6.49125 15.9442C6.49125 14.8457 6.69062 13.7827 7.017 12.7906L7.00787 12.5793L1.9075 8.70898L1.74062 8.78654C0.634625 10.948 0 13.3752 0 15.9442C0 18.5131 0.634625 20.9402 1.74062 23.1017L7.03512 19.0977Z" fill="#FBBC05"/>
<path id="Vector_4" d="M16.3188 6.16537C19.3831 6.16537 21.4501 7.45869 22.6287 8.53948L27.2342 4.14571C24.4057 1.57679 20.7248 0 16.3188 0C9.93635 0 4.42422 3.57875 1.74072 8.78742L7.0171 12.7915C8.34085 8.94693 12.0035 6.16537 16.3188 6.16537Z" fill="#EB4335"/>
</g>
<defs>
<clipPath id="clip0_245_3241">
<rect width="32" height="32" fill="white"/>
</clipPath>
</defs>
</svg>
